<svg width="113" height="113" viewBox="0 0 113 113" fill="none" xmlns="http://www.w3.org/2000/svg">
<g clip-path="url(#clip0_385_28)">
<mask id="mask0_385_28" style="mask-type:alpha" maskUnits="userSpaceOnUse" x="0" y="0" width="113" height="113">
<path d="M56.5 113C87.7041 113 113 87.7041 113 56.5C113 25.2959 87.7041 0 56.5 0C25.2959 0 0 25.2959 0 56.5C0 87.7041 25.2959 113 56.5 113Z" fill="url(#paint0_linear_385_28)"/>
</mask>
<g mask="url(#mask0_385_28)">
<path d="M56.5 113C87.7041 113 113 87.7041 113 56.5C113 25.2959 87.7041 0 56.5 0C25.2959 0 0 25.2959 0 56.5C0 87.7041 25.2959 113 56.5 113Z" fill="url(#paint1_linear_385_28)"/>
<path d="M118 28.2667C118 28.2667 74.1844 82.1519 40.4615 81.2308C6.70299 80.3086 -35 24 -35 24M-30.8462 88C-30.8462 88 5.37226 32.482 40.4615 31.8222C76.4148 31.1462 114.538 88 114.538 88" stroke="white" stroke-width="2"/>
<path d="M108 25.6667C108 25.6667 59.0296 84.6037 21.3394 83.5962C-16.3908 82.5876 -63 21 -63 21M-58.3575 91C-58.3575 91 -17.8781 30.2772 21.3394 29.5556C61.5224 28.8161 104.131 91 104.131 91" stroke="white" stroke-width="2"/>
</g>
</g>
<defs>
<linearGradient id="paint0_linear_385_28" x1="0" y1="0" x2="113" y2="113" gradientUnits="userSpaceOnUse">
<stop stop-color="#C4863B"/>
<stop offset="1" stop-color="#4A8E8B"/>
</linearGradient>
<linearGradient id="paint1_linear_385_28" x1="0" y1="0" x2="113" y2="113" gradientUnits="userSpaceOnUse">
<stop stop-color="#C4863B"/>
<stop offset="1" stop-color="#4A8E8B"/>
</linearGradient>
<clipPath id="clip0_385_28">
<rect width="113" height="113" fill="white"/>
</clipPath>
</defs>
</svg>
